<svg width="13" height="13" viewBox="0 0 13 13" fill="none" xmlns="http://www.w3.org/2000/svg">
<path d="M6.98535 12.7394C6.15535 12.7394 5.37535 12.5819 4.64535 12.2669C3.91535 11.9519 3.28035 11.5244 2.74035 10.9844C2.20035 10.4444 1.77285 9.80944 1.45785 9.07944C1.14285 8.34944 0.985352 7.56944 0.985352 6.73944C0.985352 5.90944 1.14285 5.12944 1.45785 4.39944C1.77285 3.66944 2.20035 3.03444 2.74035 2.49444C3.28035 1.95444 3.91535 1.52694 4.64535 1.21194C5.37535 0.896941 6.15535 0.739441 6.98535 0.739441C7.81535 0.739441 8.59535 0.896941 9.32535 1.21194C10.0554 1.52694 10.6904 1.95444 11.2304 2.49444C11.7704 3.03444 12.1979 3.66944 12.5129 4.39944C12.8279 5.12944 12.9854 5.90944 12.9854 6.73944V7.60944C12.9854 8.19944 12.7829 8.70194 12.3779 9.11694C11.9729 9.53194 11.4754 9.73944 10.8854 9.73944C10.5354 9.73944 10.2054 9.66444 9.89535 9.51444C9.58535 9.36444 9.32535 9.14944 9.11535 8.86944C8.82535 9.15944 8.49785 9.37694 8.13285 9.52194C7.76785 9.66694 7.38535 9.73944 6.98535 9.73944C6.15535 9.73944 5.44785 9.44694 4.86285 8.86194C4.27785 8.27694 3.98535 7.56944 3.98535 6.73944C3.98535 5.90944 4.27785 5.20194 4.86285 4.61694C5.44785 4.03194 6.15535 3.73944 6.98535 3.73944C7.81535 3.73944 8.52285 4.03194 9.10785 4.61694C9.69285 5.20194 9.98535 5.90944 9.98535 6.73944V7.60944C9.98535 7.86944 10.0704 8.08944 10.2404 8.26944C10.4104 8.44944 10.6254 8.53944 10.8854 8.53944C11.1454 8.53944 11.3604 8.44944 11.5304 8.26944C11.7004 8.08944 11.7854 7.86944 11.7854 7.60944V6.73944C11.7854 5.39944 11.3204 4.26444 10.3904 3.33444C9.46035 2.40444 8.32535 1.93944 6.98535 1.93944C5.64535 1.93944 4.51035 2.40444 3.58035 3.33444C2.65035 4.26444 2.18535 5.39944 2.18535 6.73944C2.18535 8.07944 2.65035 9.21444 3.58035 10.1444C4.51035 11.0744 5.64535 11.5394 6.98535 11.5394H9.98535V12.7394H6.98535ZM6.98535 8.53944C7.48535 8.53944 7.91035 8.36444 8.26035 8.01444C8.61035 7.66444 8.78535 7.23944 8.78535 6.73944C8.78535 6.23944 8.61035 5.81444 8.26035 5.46444C7.91035 5.11444 7.48535 4.93944 6.98535 4.93944C6.48535 4.93944 6.06035 5.11444 5.71035 5.46444C5.36035 5.81444 5.18535 6.23944 5.18535 6.73944C5.18535 7.23944 5.36035 7.66444 5.71035 8.01444C6.06035 8.36444 6.48535 8.53944 6.98535 8.53944Z" fill="#8A2BE2"/>
<path d="M6.98535 12.7394C6.15535 12.7394 5.37535 12.5819 4.64535 12.2669C3.91535 11.9519 3.28035 11.5244 2.74035 10.9844C2.20035 10.4444 1.77285 9.80944 1.45785 9.07944C1.14285 8.34944 0.985352 7.56944 0.985352 6.73944C0.985352 5.90944 1.14285 5.12944 1.45785 4.39944C1.77285 3.66944 2.20035 3.03444 2.74035 2.49444C3.28035 1.95444 3.91535 1.52694 4.64535 1.21194C5.37535 0.896941 6.15535 0.739441 6.98535 0.739441C7.81535 0.739441 8.59535 0.896941 9.32535 1.21194C10.0554 1.52694 10.6904 1.95444 11.2304 2.49444C11.7704 3.03444 12.1979 3.66944 12.5129 4.39944C12.8279 5.12944 12.9854 5.90944 12.9854 6.73944V7.60944C12.9854 8.19944 12.7829 8.70194 12.3779 9.11694C11.9729 9.53194 11.4754 9.73944 10.8854 9.73944C10.5354 9.73944 10.2054 9.66444 9.89535 9.51444C9.58535 9.36444 9.32535 9.14944 9.11535 8.86944C8.82535 9.15944 8.49785 9.37694 8.13285 9.52194C7.76785 9.66694 7.38535 9.73944 6.98535 9.73944C6.15535 9.73944 5.44785 9.44694 4.86285 8.86194C4.27785 8.27694 3.98535 7.56944 3.98535 6.73944C3.98535 5.90944 4.27785 5.20194 4.86285 4.61694C5.44785 4.03194 6.15535 3.73944 6.98535 3.73944C7.81535 3.73944 8.52285 4.03194 9.10785 4.61694C9.69285 5.20194 9.98535 5.90944 9.98535 6.73944V7.60944C9.98535 7.86944 10.0704 8.08944 10.2404 8.26944C10.4104 8.44944 10.6254 8.53944 10.8854 8.53944C11.1454 8.53944 11.3604 8.44944 11.5304 8.26944C11.7004 8.08944 11.7854 7.86944 11.7854 7.60944V6.73944C11.7854 5.39944 11.3204 4.26444 10.3904 3.33444C9.46035 2.40444 8.32535 1.93944 6.98535 1.93944C5.64535 1.93944 4.51035 2.40444 3.58035 3.33444C2.65035 4.26444 2.18535 5.39944 2.18535 6.73944C2.18535 8.07944 2.65035 9.21444 3.58035 10.1444C4.51035 11.0744 5.64535 11.5394 6.98535 11.5394H9.98535V12.7394H6.98535ZM6.98535 8.53944C7.48535 8.53944 7.91035 8.36444 8.26035 8.01444C8.61035 7.66444 8.78535 7.23944 8.78535 6.73944C8.78535 6.23944 8.61035 5.81444 8.26035 5.46444C7.91035 5.11444 7.48535 4.93944 6.98535 4.93944C6.48535 4.93944 6.06035 5.11444 5.71035 5.46444C5.36035 5.81444 5.18535 6.23944 5.18535 6.73944C5.18535 7.23944 5.36035 7.66444 5.71035 8.01444C6.06035 8.36444 6.48535 8.53944 6.98535 8.53944Z" fill="#8A2BE2" fill-opacity="0.1"/>
</svg>
