<svg width="89" height="24" viewBox="0 0 89 24" fill="none" xmlns="http://www.w3.org/2000/svg">
<path d="M8.53719 6.05981C7.20703 6.05981 6.13072 7.13613 6.13072 8.46629V8.49675C4.55686 9.10598 3.39932 10.3041 3.04393 11.7054L2.99316 11.8881H3.85624L3.88671 11.7866C4.21163 10.7306 5.08487 9.83706 6.29318 9.32937C6.77041 10.5681 8.16149 11.1875 9.40027 10.7103C10.639 10.2331 11.2584 8.84198 10.7812 7.60321C10.4258 6.66905 9.53227 6.05981 8.53719 6.05981ZM8.53719 10.0401C7.76549 10.0401 7.11564 9.48167 6.98364 8.72013C6.97349 8.6389 6.96334 8.55767 6.96334 8.47644C6.96334 7.61336 7.66395 6.90259 8.53719 6.90259C9.41042 6.90259 10.111 7.60321 10.111 8.47644C10.111 9.34967 9.41042 10.0503 8.53719 10.0401Z" fill="#1A1A1A" stroke="#1A1A1A" stroke-width="0.167539" stroke-miterlimit="10"/>
<path d="M9.15821 8.47095C9.15821 8.81618 8.88405 9.09034 8.53882 9.09034C8.19359 9.09034 7.91943 8.81618 7.91943 8.47095C7.91943 8.12572 8.19359 7.85156 8.53882 7.85156C8.88405 7.85156 9.15821 8.12572 9.15821 8.47095Z" fill="#1A1A1A" stroke="#1A1A1A" stroke-width="0.167539" stroke-miterlimit="10"/>
<path d="M5.38044 12.6896C5.38044 12.9232 5.18752 13.1059 4.96413 13.1059H1.76566C1.53212 13.1161 1.33919 12.9435 1.32904 12.7099C1.31889 12.4764 1.4915 12.2835 1.72504 12.2733H4.95398C5.18752 12.2733 5.38044 12.4561 5.38044 12.6896Z" fill="#1A1A1A" stroke="#1A1A1A" stroke-width="0.167539" stroke-miterlimit="10"/>
<path d="M8.53719 14.506C7.54211 14.506 6.64856 15.1152 6.29318 16.0494C5.08487 15.5417 4.21163 14.6583 3.88671 13.5921L3.85624 13.4906H2.99316L3.04393 13.6734C3.40947 15.0746 4.55686 16.2728 6.13072 16.882V16.9125C6.13072 18.2426 7.20703 19.3189 8.53719 19.3189C9.86735 19.3189 10.9437 18.2426 10.9437 16.9125C10.9538 15.5823 9.86735 14.506 8.53719 14.506ZM8.53719 18.4762C7.67411 18.4762 6.97349 17.7755 6.96334 16.9023C6.96334 16.8211 6.97349 16.7398 6.98364 16.6688V16.6485C7.1258 15.7955 7.92795 15.2168 8.79104 15.3488C9.64396 15.4909 10.2227 16.2931 10.0907 17.1562C9.96889 17.9279 9.30888 18.4762 8.53719 18.4762Z" fill="#1A1A1A" stroke="#1A1A1A" stroke-width="0.167539" stroke-miterlimit="10"/>
<path d="M9.15821 16.9147C9.15821 17.2599 8.88405 17.5341 8.53882 17.5341C8.19359 17.5341 7.91943 17.2599 7.91943 16.9147C7.91943 16.5694 8.19359 16.2953 8.53882 16.2953C8.88405 16.2953 9.15821 16.5694 9.15821 16.9147Z" fill="#1A1A1A" stroke="#1A1A1A" stroke-width="0.167539" stroke-miterlimit="10"/>
<path d="M21.2309 11.1838C21.1294 11.3361 20.9669 11.4275 20.7842 11.4275H20.7639C20.5608 11.4275 20.378 11.3056 20.2968 11.1229C20.2257 10.9706 20.1343 10.8284 20.0328 10.6964C19.8805 10.5035 19.6977 10.3309 19.4845 10.1887C19.2712 10.0466 19.0275 9.94502 18.7838 9.87394C18.2152 9.72163 17.606 9.72163 17.0374 9.87394C16.4281 10.0364 15.8595 10.3309 15.3924 10.7472C15.1589 10.9604 14.9457 11.2041 14.7731 11.4681C14.6004 11.7423 14.4583 12.0367 14.3568 12.3413C14.2552 12.6663 14.2044 13.0115 14.2044 13.3466C14.1943 13.7121 14.2654 14.0878 14.4075 14.4229C14.5395 14.7275 14.7223 15.0118 14.966 15.2453C15.2097 15.4687 15.4838 15.6515 15.7986 15.7632C16.1235 15.885 16.4688 15.946 16.814 15.946C17.1085 15.946 17.4029 15.9054 17.6974 15.8343C17.9817 15.7632 18.266 15.6515 18.5198 15.5093C18.7838 15.3672 19.0275 15.1946 19.2611 15.0017C19.4438 14.8392 19.6165 14.6564 19.7688 14.4635C19.8602 14.3518 19.9922 14.2807 20.1343 14.2807C20.3171 14.2807 20.4795 14.3823 20.5608 14.5447C20.642 14.7072 20.6217 14.9001 20.51 15.0524C20.4085 15.1844 20.2866 15.3164 20.1749 15.4383C19.586 16.0475 18.8448 16.4943 18.0325 16.738C17.6161 16.8598 17.1795 16.9207 16.7429 16.9207C16.2454 16.9207 15.758 16.8395 15.2909 16.6567C14.8644 16.4841 14.4786 16.2404 14.1537 15.9257C13.8389 15.6109 13.5851 15.2352 13.4124 14.8189C13.2297 14.3823 13.1484 13.9152 13.1484 13.438C13.1484 13.0216 13.2094 12.6053 13.3312 12.2093C13.4531 11.8235 13.6155 11.4478 13.8389 11.1026C14.0521 10.7573 14.3161 10.4426 14.6106 10.1684C14.9152 9.8841 15.2503 9.6404 15.6057 9.43732C15.9712 9.23425 16.3571 9.07178 16.7632 8.96009C17.1795 8.8484 17.606 8.78748 18.0325 8.78748C18.4589 8.78748 18.8651 8.8484 19.2712 8.97025C19.6368 9.08194 19.9922 9.25455 20.3069 9.47794C20.6014 9.69117 20.8654 9.96533 21.0685 10.2801C21.1599 10.4121 21.2309 10.5543 21.302 10.6964C21.3426 10.8589 21.3325 11.0416 21.2309 11.1838Z" fill="#1A1A1A" stroke="#1A1A1A" stroke-width="0.304617" stroke-miterlimit="10"/>
<path d="M30.7261 12.4967L30.056 16.3044C30.0154 16.5583 29.792 16.741 29.5381 16.741H29.528C29.2437 16.741 29.0101 16.5075 29.0101 16.2232C29.0101 16.1927 29.0101 16.1623 29.0203 16.1318L29.6701 12.4764C29.7514 12.0601 29.7717 11.6336 29.7311 11.2173C29.7006 10.9127 29.5788 10.6284 29.396 10.3948C29.2031 10.1715 28.9594 10.0192 28.6852 9.92777C28.3298 9.81608 27.9541 9.76531 27.5886 9.77546C27.2332 9.77546 26.8677 9.83639 26.5326 9.95823C26.1874 10.0801 25.8726 10.2628 25.5883 10.4862C25.2938 10.7198 25.0501 11.0041 24.8572 11.3189C24.6541 11.6539 24.512 12.0296 24.451 12.4256L23.7606 16.3247C23.6997 16.609 23.4255 16.7918 23.1412 16.7309C22.867 16.6801 22.6843 16.4161 22.7249 16.1419L24.4206 6.4856C24.4713 6.20129 24.7455 6.00837 25.0298 6.05914C25.3141 6.10991 25.507 6.38406 25.4563 6.66837L24.8572 10.0192C24.979 9.89731 25.1009 9.78562 25.2329 9.68408C25.4664 9.50131 25.7203 9.33885 25.9944 9.217C26.2686 9.085 26.563 8.98346 26.8677 8.90223C27.1824 8.83115 27.4972 8.79053 27.812 8.79053C28.9695 8.79053 29.8224 9.09515 30.3301 9.69423C30.8378 10.2933 30.9394 11.2478 30.7261 12.4967Z" fill="#1A1A1A" stroke="#1A1A1A" stroke-width="0.304617" stroke-miterlimit="10"/>
<path d="M35.4645 6.70476C35.4645 6.8063 35.434 6.91799 35.3833 7.00938C35.3325 7.10076 35.2716 7.17184 35.2005 7.24292C35.0279 7.39523 34.8147 7.47646 34.5811 7.47646C34.3983 7.48661 34.2257 7.41554 34.1039 7.29369C33.982 7.17184 33.9211 7.00938 33.9313 6.84692C33.9313 6.74538 33.9516 6.64384 34.0023 6.5423C34.0531 6.44076 34.114 6.35953 34.1953 6.28845C34.2765 6.21738 34.3679 6.15645 34.4796 6.11584C34.5913 6.07522 34.703 6.05491 34.8147 6.05491C34.9974 6.04476 35.17 6.11584 35.302 6.23768C35.4036 6.35953 35.4747 6.53215 35.4645 6.70476Z" fill="#1A1A1A" stroke="#1A1A1A" stroke-width="0.304617" stroke-miterlimit="10"/>
<path d="M34.7153 9.61426L33.5375 16.3057C33.4867 16.59 33.2125 16.7829 32.9282 16.7321C32.6439 16.6814 32.451 16.4072 32.5018 16.1229L33.6898 9.43149C33.7304 9.17764 33.9436 8.99487 34.1975 8.99487C34.4818 8.99487 34.7153 9.22841 34.7255 9.51272C34.7255 9.55334 34.7153 9.5838 34.7153 9.61426Z" fill="#1A1A1A" stroke="#1A1A1A" stroke-width="0.304617" stroke-miterlimit="10"/>
<path d="M49.3664 12.4681L48.6861 16.3062C48.6455 16.5905 48.3815 16.7835 48.0972 16.7429C47.8129 16.7022 47.62 16.4382 47.6606 16.1539C47.6606 16.1438 47.6606 16.1336 47.6707 16.1235L48.3104 12.4681C48.3917 12.0619 48.412 11.6456 48.3815 11.2293C48.351 10.9348 48.2597 10.6505 48.1073 10.3967C47.9753 10.1834 47.7824 10.021 47.559 9.91944C47.3052 9.80775 47.0209 9.75698 46.7366 9.75698C46.3812 9.75698 46.036 9.8179 45.711 9.93975C45.3861 10.0616 45.0916 10.2342 44.8276 10.4576C44.5535 10.6911 44.3301 10.9754 44.1575 11.2902C43.9646 11.6354 43.8326 12.0213 43.7716 12.4071L43.7615 12.4884H43.7412L43.071 16.2859C43.0203 16.5702 42.7461 16.7632 42.4618 16.7124C42.1775 16.6616 41.9846 16.3875 42.0353 16.1032L42.675 12.4579C42.7562 12.0518 42.7766 11.6354 42.7461 11.2191C42.7258 10.9247 42.6242 10.6404 42.4719 10.3865C42.3399 10.1733 42.147 10.0108 41.9236 9.90928C41.6698 9.79759 41.3855 9.74682 41.1113 9.74682C40.7559 9.74682 40.4107 9.80775 40.0858 9.92959C39.7609 10.0514 39.4664 10.2241 39.2024 10.4474C38.9282 10.681 38.7048 10.9653 38.5322 11.2801C38.3393 11.6354 38.2073 12.0111 38.1362 12.4071L37.4559 16.2859C37.4052 16.5702 37.131 16.7632 36.8467 16.7124C36.5624 16.6616 36.3695 16.3875 36.4202 16.1032L37.6082 9.40159C37.6488 9.14774 37.8722 8.97513 38.1261 8.97513H38.1464C38.4307 8.97513 38.6642 9.20867 38.6642 9.49297C38.6642 9.52344 38.6642 9.5539 38.6541 9.59451L38.6033 9.84836C38.9079 9.56405 39.2532 9.33051 39.6289 9.14774C40.1569 8.89389 40.7255 8.77205 41.3042 8.7822C41.9236 8.7822 42.4516 8.92436 42.8781 9.21882C43.2639 9.48282 43.5584 9.86867 43.7006 10.3154C43.8427 10.1327 44.0052 9.97021 44.1778 9.80774C44.4113 9.60467 44.6652 9.4219 44.9495 9.27974C45.244 9.12743 45.5486 9.00559 45.8633 8.92436C46.2086 8.83297 46.564 8.79236 46.9193 8.79236C47.3357 8.7822 47.752 8.86343 48.1378 9.0259C48.483 9.1782 48.7877 9.41174 49.0009 9.71636C49.2344 10.0616 49.3867 10.4576 49.4375 10.8739C49.4883 11.4121 49.4781 11.9502 49.3664 12.4681Z" fill="#1A1A1A" stroke="#1A1A1A" stroke-width="0.304617" stroke-miterlimit="10"/>
<path d="M59.1978 10.9121C58.8526 10.0592 58.1621 9.389 57.3092 9.06408C56.8421 8.88131 56.3547 8.78993 55.8572 8.80008C55.4307 8.80008 55.0042 8.85085 54.5879 8.9727C54.1818 9.08439 53.7959 9.2367 53.4405 9.44993C53.0852 9.65301 52.7501 9.8967 52.4455 10.181C52.151 10.4653 51.887 10.7801 51.6636 11.1152C51.4504 11.4604 51.2778 11.8361 51.1559 12.2219C51.0341 12.6179 50.9731 13.0343 50.9731 13.4506C50.9731 13.9176 51.0645 14.3847 51.2371 14.8213C51.4098 15.2376 51.6636 15.6133 51.9784 15.9383C52.3033 16.253 52.6891 16.5069 53.1156 16.6795C53.5725 16.8623 54.0701 16.9537 54.5575 16.9435C54.9839 16.9435 55.4104 16.8927 55.8267 16.781C56.6289 16.5678 57.3701 16.1515 57.9793 15.5829C58.2738 15.2986 58.5378 14.9838 58.7612 14.6386C58.9744 14.2933 59.147 13.9176 59.2689 13.5318C59.3907 13.1358 59.4516 12.7195 59.4516 12.3032C59.4719 11.8259 59.3806 11.3487 59.1978 10.9121ZM55.7962 9.7647C56.1618 9.7647 56.5172 9.82562 56.8522 9.96778C57.1569 10.0998 57.4412 10.2825 57.6747 10.5161C57.9083 10.7598 58.091 11.0339 58.2129 11.3487C58.3449 11.6838 58.4058 12.0392 58.4058 12.3946C58.4058 12.8819 58.3042 13.3592 58.091 13.7958C57.8879 14.2223 57.6036 14.6081 57.2584 14.933C56.9132 15.258 56.507 15.522 56.0602 15.6946C55.6135 15.8773 55.1464 15.9687 54.659 15.9687C54.2935 15.9687 53.9381 15.8976 53.603 15.7656C52.9836 15.5118 52.4861 15.0244 52.2424 14.3949C52.1104 14.0598 52.0495 13.7044 52.0495 13.349C52.0495 13.0241 52.1002 12.6992 52.1916 12.3946C52.283 12.0899 52.415 11.8056 52.5876 11.5315C52.7602 11.2675 52.9633 11.0238 53.1867 10.8105C53.4202 10.5973 53.6741 10.4044 53.9482 10.2521C54.2224 10.0998 54.5168 9.97793 54.8215 9.8967C55.1565 9.80531 55.4815 9.7647 55.7962 9.7647Z" fill="#1A1A1A" stroke="#1A1A1A" stroke-width="0.304617" stroke-miterlimit="10"/>
<path d="M68.8927 12.5444L68.2327 16.3014C68.1819 16.5857 67.9077 16.7786 67.6234 16.7278C67.3391 16.677 67.1462 16.4029 67.197 16.1186L67.8265 12.5241C67.9077 12.1078 67.928 11.6813 67.8773 11.265C67.8468 10.9604 67.725 10.6659 67.5422 10.4121C67.3594 10.1887 67.1157 10.0161 66.8416 9.92471C66.4963 9.80286 66.1308 9.7521 65.7653 9.76225C65.3997 9.76225 65.0342 9.83333 64.689 9.96533C64.3437 10.0973 64.0188 10.2903 63.7243 10.5339C63.4299 10.7878 63.176 11.0924 62.9831 11.4275C62.7699 11.7829 62.6277 12.1687 62.5668 12.5749L61.9068 16.3014C61.8662 16.5552 61.6428 16.7278 61.3889 16.7278C61.1046 16.7278 60.8711 16.4943 60.8711 16.1998C60.8711 16.1694 60.8711 16.1389 60.8812 16.1084L62.0693 9.41702C62.1099 9.13271 62.384 8.92963 62.6683 8.9804C62.9526 9.03117 63.1557 9.29517 63.1049 9.57948V9.59979L63.0339 10.0059C63.1557 9.8841 63.2877 9.7724 63.4299 9.67086C63.6634 9.48809 63.9173 9.33579 64.1813 9.20379C64.4554 9.07179 64.7397 8.97025 65.0342 8.89917C65.3388 8.82809 65.6434 8.78748 65.9582 8.78748C67.1157 8.78748 67.9687 9.10225 68.4764 9.72163C68.984 10.3512 69.116 11.2955 68.8927 12.5444Z" fill="#1A1A1A" stroke="#1A1A1A" stroke-width="0.304617" stroke-miterlimit="10"/>
<path d="M78.8523 11.2775C78.7305 10.8003 78.4969 10.3535 78.172 9.9778C77.8471 9.60211 77.4308 9.30765 76.9739 9.11472C76.4662 8.90149 75.928 8.7898 75.3797 8.79995C74.8009 8.79995 74.2323 8.91164 73.6942 9.12488C73.1662 9.32795 72.6788 9.62242 72.2523 9.98796C71.8258 10.3535 71.4603 10.7901 71.1658 11.2775C70.8714 11.7649 70.6683 12.303 70.5769 12.8615C70.4754 13.3895 70.4957 13.9378 70.6277 14.4557C70.7495 14.9329 70.9831 15.3898 71.308 15.7655C71.6329 16.1412 72.0492 16.4458 72.5062 16.6388C73.0138 16.852 73.552 16.9637 74.1105 16.9535C74.5369 16.9535 74.9735 16.8926 75.3797 16.7708C75.7757 16.6489 76.1616 16.4864 76.5271 16.2631C76.8825 16.0498 77.2074 15.8061 77.4917 15.5117C77.5933 15.4101 77.6846 15.3086 77.776 15.2071C77.8979 15.0649 77.9283 14.872 77.8471 14.6994C77.7659 14.5267 77.5932 14.4151 77.4105 14.4151C77.2683 14.4151 77.1262 14.476 77.0449 14.5877C76.9028 14.7704 76.7403 14.9329 76.5677 15.0852C76.3443 15.268 76.1108 15.4406 75.8569 15.5726C75.6031 15.7046 75.3289 15.8163 75.0548 15.8874C74.7705 15.9584 74.4862 15.9991 74.1917 15.9991C73.8262 15.9991 73.4606 15.9381 73.1154 15.796C72.7905 15.664 72.496 15.4711 72.2523 15.2274C72.0086 14.9735 71.8157 14.6689 71.704 14.3338C71.5822 13.9784 71.5415 13.6129 71.572 13.2474H78.4665C78.6899 13.2474 78.8726 13.0849 78.9234 12.8717C79.0046 12.3437 78.9843 11.7953 78.8523 11.2775ZM75.3188 9.72396C75.6945 9.7138 76.0702 9.78488 76.4256 9.93719C76.7403 10.0692 77.0246 10.2621 77.2582 10.516C77.4917 10.7698 77.6643 11.0643 77.7659 11.3892C77.8674 11.6837 77.9182 11.9984 77.908 12.303C77.908 12.3538 77.8674 12.3843 77.8268 12.3843H71.836C71.8055 12.3843 71.7852 12.3741 71.7649 12.3538C71.7548 12.3335 71.7446 12.303 71.7548 12.2827C71.8665 11.9781 72.0188 11.6837 72.2015 11.4095C72.4351 11.0744 72.7194 10.7698 73.0443 10.5261C73.3692 10.2723 73.7246 10.0793 74.1105 9.93719C74.5065 9.79503 74.9126 9.72396 75.3188 9.72396Z" fill="#1A1A1A" stroke="#1A1A1A" stroke-width="0.304617" stroke-miterlimit="10"/>
<path d="M87.6572 9.76633L81.8999 19.0876C81.7578 19.3211 81.4532 19.3922 81.2196 19.2501C80.9861 19.1079 80.915 18.8033 81.0572 18.5698L82.3162 16.539L80.5088 9.6851C80.4276 9.39064 80.6002 9.08602 80.8947 9.01495C81.1892 8.93371 81.4938 9.10633 81.5648 9.40079V9.41095L83.0981 15.2596L86.8043 9.23833C86.8956 9.08602 87.0581 9.00479 87.2307 9.00479C87.5049 9.00479 87.7384 9.22818 87.7283 9.51249C87.7283 9.59372 87.708 9.6851 87.6572 9.76633Z" fill="#1A1A1A" stroke="#1A1A1A" stroke-width="0.304617" stroke-miterlimit="10"/>
</svg>
