<svg width="245" height="245" viewBox="0 0 245 245" fill="none" xmlns="http://www.w3.org/2000/svg">
<g clip-path="url(#clip0_2424_886)">
<path d="M124.198 46.1367C108.14 46.1367 92.4415 50.8987 79.0891 59.8204C65.7368 68.7422 55.3299 81.423 49.1845 96.2593C43.0391 111.096 41.4312 127.421 44.5641 143.171C47.697 158.921 55.43 173.389 66.7852 184.744C78.1404 196.099 92.6079 203.832 108.358 206.965C124.108 210.098 140.434 208.49 155.27 202.345C170.106 196.199 182.787 185.793 191.709 172.44C200.631 159.088 205.393 143.39 205.393 127.331C205.368 105.804 196.806 85.1663 181.585 69.9447C166.363 54.723 145.725 46.1609 124.198 46.1367ZM124.198 202.726C109.287 202.726 94.7098 198.304 82.3112 190.02C69.9126 181.735 60.2491 169.96 54.5426 156.183C48.8362 142.407 47.3431 127.247 50.2522 112.622C53.1613 97.9971 60.342 84.5631 70.8861 74.0189C81.4303 63.4748 94.8643 56.2941 109.489 53.385C124.115 50.4759 139.274 51.9689 153.051 57.6754C166.827 63.3818 178.602 73.0454 186.887 85.444C195.171 97.8426 199.593 112.419 199.593 127.331C199.57 147.32 191.62 166.484 177.485 180.618C163.351 194.753 144.187 202.703 124.198 202.726Z" fill="#94FF47"/>
<path d="M168.563 90.4658L99.9434 157.992L79.9039 136.931C79.3737 136.373 78.6438 136.049 77.8748 136.03C77.1058 136.011 76.3607 136.298 75.8035 136.829C75.2462 137.359 74.9224 138.089 74.9032 138.858C74.8841 139.627 75.1713 140.372 75.7015 140.929L97.7742 164.127C98.0396 164.406 98.3577 164.63 98.7102 164.784C99.0627 164.939 99.4424 165.022 99.8273 165.028H99.8754C100.636 165.028 101.366 164.729 101.909 164.195L172.629 94.6003C172.902 94.3335 173.119 94.0156 173.269 93.6648C173.418 93.3139 173.497 92.9371 173.5 92.5558C173.504 92.1745 173.432 91.7962 173.289 91.4426C173.147 91.089 172.935 90.7671 172.668 90.4952C172.401 90.2234 172.082 90.0069 171.731 89.8583C171.38 89.7096 171.003 89.6317 170.622 89.629C170.24 89.6262 169.862 89.6988 169.509 89.8423C169.156 89.9859 168.834 90.1978 168.563 90.4658H168.563Z" fill="#263238" fill-opacity="0.8"/>
<path d="M219.491 213.963H155.029C175.436 206.392 192.532 191.888 203.328 172.987C214.123 154.086 217.931 131.992 214.085 110.568C210.239 89.1437 198.984 69.7535 182.288 55.7881C165.592 41.8227 144.518 34.1709 122.751 34.1709C100.985 34.1709 79.911 41.8227 63.2152 55.7881C46.5194 69.7535 35.2643 89.1437 31.4181 110.568C27.5719 131.992 31.3795 154.086 42.175 172.987C52.9705 191.888 70.0668 206.392 90.4742 213.963H26.0123C25.5998 213.909 25.1805 213.944 24.7825 214.065C24.3844 214.186 24.0168 214.391 23.7041 214.665C23.3915 214.94 23.141 215.278 22.9694 215.657C22.7978 216.036 22.709 216.447 22.709 216.863C22.709 217.279 22.7978 217.69 22.9694 218.069C23.141 218.448 23.3915 218.786 23.7041 219.061C24.0168 219.335 24.3844 219.54 24.7825 219.661C25.1805 219.782 25.5998 219.817 26.0123 219.763H219.491C219.903 219.817 220.322 219.782 220.721 219.661C221.119 219.54 221.486 219.335 221.799 219.061C222.111 218.786 222.362 218.448 222.534 218.069C222.705 217.69 222.794 217.279 222.794 216.863C222.794 216.447 222.705 216.036 222.534 215.657C222.362 215.278 222.111 214.94 221.799 214.665C221.486 214.391 221.119 214.186 220.721 214.065C220.322 213.944 219.903 213.909 219.491 213.963ZM35.7575 126.969C35.7575 109.764 40.8596 92.9443 50.4187 78.6382C59.9777 64.3321 73.5643 53.1819 89.4603 46.5975C105.356 40.0132 122.848 38.2904 139.723 41.6471C156.598 45.0037 172.099 53.2891 184.265 65.4554C196.432 77.6218 204.717 93.1226 208.074 109.998C211.431 126.873 209.708 144.365 203.123 160.261C196.539 176.157 185.389 189.743 171.083 199.302C156.777 208.861 139.957 213.963 122.751 213.963C99.6873 213.937 77.5752 204.763 61.2663 188.455C44.9575 172.146 35.7837 150.034 35.7575 126.969ZM129.276 26.5639C130.136 26.5639 130.977 26.3088 131.693 25.8309C132.408 25.3529 132.965 24.6736 133.295 23.8788C133.624 23.084 133.71 22.2094 133.542 21.3657C133.374 20.5219 132.96 19.7469 132.352 19.1385C131.743 18.5302 130.968 18.116 130.125 17.9481C129.281 17.7803 128.406 17.8664 127.611 18.1956C126.817 18.5249 126.137 19.0824 125.659 19.7977C125.181 20.513 124.926 21.354 124.926 22.2142C124.928 23.3674 125.386 24.473 126.202 25.2885C127.017 26.1039 128.123 26.5626 129.276 26.5639ZM129.276 20.0394C129.706 20.0394 130.127 20.1669 130.484 20.4059C130.842 20.6449 131.121 20.9846 131.285 21.382C131.45 21.7794 131.493 22.2167 131.409 22.6385C131.325 23.0604 131.118 23.4479 130.814 23.7521C130.51 24.0562 130.122 24.2634 129.7 24.3473C129.278 24.4312 128.841 24.3881 128.444 24.2235C128.046 24.0589 127.707 23.7802 127.468 23.4225C127.229 23.0649 127.101 22.6444 127.101 22.2142C127.102 21.6376 127.331 21.0848 127.739 20.677C128.147 20.2693 128.699 20.04 129.276 20.0394ZM230.486 99.4214C229.912 99.4214 229.352 99.5914 228.875 99.9101C228.398 100.229 228.026 100.682 227.807 101.211C227.587 101.741 227.53 102.324 227.642 102.887C227.754 103.449 228.03 103.966 228.435 104.372C228.841 104.777 229.358 105.053 229.92 105.165C230.483 105.277 231.066 105.22 231.596 105C232.125 104.781 232.578 104.409 232.897 103.932C233.216 103.455 233.386 102.895 233.386 102.321C233.385 101.552 233.079 100.815 232.535 100.272C231.992 99.728 231.255 99.4222 230.486 99.4214ZM230.486 103.771C230.199 103.771 229.919 103.686 229.68 103.527C229.442 103.367 229.256 103.141 229.146 102.876C229.037 102.611 229.008 102.32 229.064 102.038C229.12 101.757 229.258 101.499 229.461 101.296C229.663 101.093 229.922 100.955 230.203 100.899C230.484 100.843 230.776 100.872 231.041 100.982C231.306 101.091 231.532 101.277 231.691 101.516C231.851 101.754 231.936 102.034 231.936 102.321C231.935 102.706 231.782 103.074 231.511 103.346C231.239 103.618 230.87 103.771 230.486 103.771ZM189.447 6.14453C188.873 6.14453 188.313 6.3146 187.836 6.63324C187.359 6.95187 186.987 7.40476 186.768 7.93462C186.548 8.46449 186.491 9.04755 186.603 9.61005C186.715 10.1726 186.991 10.6893 187.396 11.0948C187.802 11.5003 188.319 11.7765 188.881 11.8884C189.444 12.0003 190.027 11.9429 190.557 11.7234C191.086 11.5039 191.539 11.1322 191.858 10.6554C192.177 10.1785 192.347 9.61786 192.347 9.04433C192.346 8.27553 192.04 7.53846 191.496 6.99483C190.953 6.45121 190.216 6.14541 189.447 6.14453ZM189.447 10.4942C189.16 10.4942 188.88 10.4092 188.641 10.2499C188.403 10.0906 188.217 9.86412 188.107 9.59918C187.998 9.33425 187.969 9.04272 188.025 8.76147C188.081 8.48022 188.219 8.22187 188.422 8.0191C188.624 7.81632 188.883 7.67823 189.164 7.62229C189.445 7.56635 189.737 7.59506 190.002 7.7048C190.267 7.81454 190.493 8.00037 190.652 8.23881C190.812 8.47724 190.897 8.75757 190.897 9.04433C190.896 9.42875 190.743 9.79731 190.472 10.0691C190.2 10.341 189.831 10.4938 189.447 10.4942ZM234.877 23.06C234.303 23.06 233.743 23.2301 233.266 23.5487C232.789 23.8674 232.417 24.3202 232.198 24.8501C231.978 25.38 231.921 25.963 232.033 26.5255C232.145 27.0881 232.421 27.6047 232.827 28.0103C233.232 28.4158 233.749 28.692 234.311 28.8039C234.874 28.9158 235.457 28.8584 235.987 28.6389C236.517 28.4194 236.969 28.0477 237.288 27.5709C237.607 27.094 237.777 26.5333 237.777 25.9598C237.776 25.191 237.47 24.454 236.926 23.9103C236.383 23.3667 235.646 23.0609 234.877 23.06ZM234.877 27.4097C234.59 27.4097 234.31 27.3247 234.071 27.1654C233.833 27.0061 233.647 26.7796 233.537 26.5147C233.428 26.2497 233.399 25.9582 233.455 25.677C233.511 25.3957 233.649 25.1374 233.852 24.9346C234.055 24.7318 234.313 24.5937 234.594 24.5378C234.875 24.4818 235.167 24.5106 235.432 24.6203C235.697 24.73 235.923 24.9159 236.083 25.1543C236.242 25.3927 236.327 25.6731 236.327 25.9598C236.327 26.3442 236.174 26.7128 235.902 26.9846C235.63 27.2565 235.261 27.4093 234.877 27.4097ZM44.8987 45.2918C44.8987 44.7183 44.7287 44.1576 44.41 43.6808C44.0914 43.2039 43.6385 42.8322 43.1086 42.6127C42.5788 42.3933 41.9957 42.3358 41.4332 42.4477C40.8707 42.5596 40.354 42.8358 39.9485 43.2413C39.5429 43.6469 39.2667 44.1636 39.1549 44.7261C39.043 45.2886 39.1004 45.8716 39.3199 46.4015C39.5394 46.9314 39.911 47.3843 40.3879 47.7029C40.8648 48.0215 41.4254 48.1916 41.9989 48.1916C42.7677 48.1907 43.5048 47.8849 44.0484 47.3413C44.5921 46.7977 44.8979 46.0606 44.8987 45.2918ZM40.549 45.2918C40.549 45.005 40.6341 44.7247 40.7934 44.4863C40.9527 44.2478 41.1791 44.062 41.4441 43.9523C41.709 43.8425 42.0005 43.8138 42.2818 43.8698C42.563 43.9257 42.8214 44.0638 43.0242 44.2666C43.2269 44.4693 43.365 44.7277 43.421 45.0089C43.4769 45.2902 43.4482 45.5817 43.3385 45.8467C43.2287 46.1116 43.0429 46.338 42.8045 46.4974C42.566 46.6567 42.2857 46.7417 41.9989 46.7417C41.6145 46.7413 41.246 46.5884 40.9741 46.3166C40.7023 46.0448 40.5494 45.6762 40.549 45.2918Z" fill="#263238" fill-opacity="0.8"/>
<path d="M16.7428 99.4316L18.8988 96.5956L17.5374 95.8242L16.1527 98.9995H16.1078L14.7013 95.8474L13.3167 96.6405L15.4495 99.4098V99.4548L12.1133 99.0227V100.565L15.4712 100.135V100.18L13.3167 102.948L14.6086 103.765L16.0846 100.565H16.1295L17.491 103.742L18.9206 102.926L16.7428 100.203V100.157L20.1675 100.565V99.0227L16.7428 99.4765V99.4316Z" fill="#E1CCEE"/>
<path d="M22.4847 15.7515L19.3876 19.7277L21.2437 20.9036L23.3639 16.305H23.429L25.3864 20.871L27.4415 19.6952L24.3118 15.784V15.7189L29.2324 16.305V14.0871L24.3118 14.742V14.6769L27.4089 10.5993L25.4515 9.49219L23.4652 14.0546H23.3965L21.3776 9.52475L19.3876 10.6644L22.4521 14.6443V14.7094L17.6582 14.0871V16.305L22.4847 15.6863V15.7515Z" fill="#670B78"/>
<path d="M95.6446 10.0771V8.56336L92.2852 9.00848V8.96354L94.3992 6.18263L93.0638 5.42578L91.7067 8.54161H91.6618L90.2829 5.44753L88.9244 6.22758L91.0166 8.94179V8.98673L87.7441 8.56336V10.0771L91.0383 9.65369V9.69863L88.9244 12.4128L90.193 13.2146L91.64 10.0771H91.6835L93.0189 13.1914L94.4209 12.3911L92.2852 9.72038V9.67544L95.6446 10.0771Z" fill="#E1CCEE"/>
<path d="M202.287 52.9192L204.111 50.5196L202.959 49.8672L201.789 52.5539H201.749L200.56 49.886L199.387 50.5573L201.193 52.9004V52.9381L198.371 52.5727V53.8776L201.211 53.5137V53.5528L199.387 55.893L200.482 56.5846L201.731 53.8776H201.768L202.919 56.5657L204.13 55.8741L202.287 53.5717V53.5325L205.184 53.8776V52.5727L202.287 52.9569V52.9192Z" fill="#E1CCEE"/>
<path d="M3.85878 219.768C5.4603 219.768 6.75858 218.47 6.75858 216.869C6.75858 215.267 5.4603 213.969 3.85878 213.969C2.25727 213.969 0.958984 215.267 0.958984 216.869C0.958984 218.47 2.25727 219.768 3.85878 219.768Z" fill="#263238" fill-opacity="0.8"/>
<path d="M16.9057 213.957H12.556C11.787 213.957 11.0494 214.263 10.5056 214.806C9.96176 215.35 9.65625 216.088 9.65625 216.857C9.65625 217.626 9.96176 218.363 10.5056 218.907C11.0494 219.451 11.787 219.757 12.556 219.757H16.9057C17.6748 219.757 18.4124 219.451 18.9562 218.907C19.5 218.363 19.8055 217.626 19.8055 216.857C19.8055 216.088 19.5 215.35 18.9562 214.806C18.4124 214.263 17.6748 213.957 16.9057 213.957ZM232.941 213.957H228.591C227.822 213.957 227.084 214.263 226.541 214.806C225.997 215.35 225.691 216.088 225.691 216.857C225.691 217.626 225.997 218.363 226.541 218.907C227.084 219.451 227.822 219.757 228.591 219.757H232.941C233.71 219.757 234.447 219.451 234.991 218.907C235.535 218.363 235.84 217.626 235.84 216.857C235.84 216.088 235.535 215.35 234.991 214.806C234.447 214.263 233.71 213.957 232.941 213.957Z" fill="#263238" fill-opacity="0.8"/>
<path d="M241.64 219.768C243.242 219.768 244.54 218.47 244.54 216.869C244.54 215.267 243.242 213.969 241.64 213.969C240.039 213.969 238.74 215.267 238.74 216.869C238.74 218.47 240.039 219.768 241.64 219.768Z" fill="#263238" fill-opacity="0.8"/>
<path d="M172.267 225.562H160.221C159.492 225.621 158.812 225.952 158.316 226.489C157.82 227.027 157.545 227.731 157.545 228.462C157.545 229.194 157.82 229.898 158.316 230.435C158.812 230.973 159.492 231.304 160.221 231.362H172.267C172.996 231.304 173.676 230.973 174.172 230.435C174.668 229.898 174.944 229.194 174.944 228.462C174.944 227.731 174.668 227.027 174.172 226.489C173.676 225.952 172.996 225.621 172.267 225.562ZM85.2729 225.562H73.2275C72.4985 225.621 71.8183 225.952 71.3223 226.489C70.8262 227.027 70.5508 227.731 70.5508 228.462C70.5508 229.194 70.8262 229.898 71.3223 230.435C71.8183 230.973 72.4985 231.304 73.2275 231.362H85.2729C86.0019 231.304 86.6821 230.973 87.1782 230.435C87.6742 229.898 87.9496 229.194 87.9496 228.462C87.9496 227.731 87.6742 227.027 87.1782 226.489C86.6821 225.952 86.0019 225.621 85.2729 225.562ZM151.745 225.562H93.7492C92.9801 225.562 92.2426 225.868 91.6987 226.412C91.1549 226.956 90.8494 227.693 90.8494 228.462C90.8494 229.231 91.1549 229.969 91.6987 230.513C92.2426 231.057 92.9801 231.362 93.7492 231.362H116.861V234.262H105.348C104.579 234.262 103.842 234.567 103.298 235.111C102.754 235.655 102.449 236.393 102.449 237.162C102.449 237.931 102.754 238.668 103.298 239.212C103.842 239.756 104.579 240.061 105.348 240.061H141.596C142.365 240.061 143.103 239.756 143.646 239.212C144.19 238.668 144.496 237.931 144.496 237.162C144.496 236.393 144.19 235.655 143.646 235.111C143.103 234.567 142.365 234.262 141.596 234.262H128.634V231.362H151.745C152.514 231.362 153.252 231.057 153.796 230.513C154.339 229.969 154.645 229.231 154.645 228.462C154.645 227.693 154.339 226.956 153.796 226.412C153.252 225.868 152.514 225.562 151.745 225.562Z" fill="#94FF47"/>
</g>
<defs>
<clipPath id="clip0_2424_886">
<rect width="243.583" height="243.583" fill="white" transform="translate(0.958984 0.953125)"/>
</clipPath>
</defs>
</svg>
