<svg width="13" height="13" viewBox="0 0 13 13" fill="none" xmlns="http://www.w3.org/2000/svg">
<path d="M11.6607 12.7394L9.92331 11.002V12.3124H8.7454V8.98484H12.073V10.1628H10.7479L12.4853 11.9002L11.6607 12.7394ZM6.38957 12.5186C5.57485 12.5186 4.8092 12.364 4.09264 12.0548C3.37607 11.7456 2.75276 11.3259 2.2227 10.7959C1.69264 10.2658 1.27301 9.64251 0.963804 8.92594C0.654601 8.20938 0.5 7.44374 0.5 6.62901C0.5 5.81429 0.654601 5.04864 0.963804 4.33208C1.27301 3.61551 1.69264 2.9922 2.2227 2.46214C2.75276 1.93208 3.37607 1.51245 4.09264 1.20324C4.8092 0.894042 5.57485 0.739441 6.38957 0.739441C7.20429 0.739441 7.96994 0.894042 8.6865 1.20324C9.40307 1.51245 10.0264 1.93208 10.5564 2.46214C11.0865 2.9922 11.5061 3.61551 11.8153 4.33208C12.1245 5.04864 12.2791 5.81429 12.2791 6.62901C12.2791 6.82533 12.2693 7.02165 12.2497 7.21797C12.2301 7.41429 12.2006 7.61061 12.1614 7.80693H10.954C11.0031 7.61061 11.0399 7.41429 11.0644 7.21797C11.089 7.02165 11.1012 6.82533 11.1012 6.62901C11.1012 6.43269 11.089 6.23637 11.0644 6.04005C11.0399 5.84374 11.0031 5.64742 10.954 5.4511H8.95153C8.98098 5.64742 9.00307 5.84374 9.01779 6.04005C9.03252 6.23637 9.03988 6.43269 9.03988 6.62901C9.03988 6.82533 9.03252 7.02165 9.01779 7.21797C9.00307 7.41429 8.98098 7.61061 8.95153 7.80693H7.77362C7.80307 7.61061 7.82515 7.41429 7.83988 7.21797C7.8546 7.02165 7.86196 6.82533 7.86196 6.62901C7.86196 6.43269 7.8546 6.23637 7.83988 6.04005C7.82515 5.84374 7.80307 5.64742 7.77362 5.4511H5.00552C4.97607 5.64742 4.95399 5.84374 4.93926 6.04005C4.92454 6.23637 4.91718 6.43269 4.91718 6.62901C4.91718 6.82533 4.92454 7.02165 4.93926 7.21797C4.95399 7.41429 4.97607 7.61061 5.00552 7.80693H6.97853V8.98484H5.27055C5.38834 9.40693 5.54049 9.81183 5.72699 10.1996C5.9135 10.5873 6.13436 10.9578 6.38957 11.3112C6.58589 11.3112 6.78221 11.299 6.97853 11.2744C7.17485 11.2499 7.37117 11.2278 7.56748 11.2082V12.4155C7.37117 12.4351 7.17485 12.4572 6.97853 12.4818C6.78221 12.5063 6.58589 12.5186 6.38957 12.5186ZM1.82515 7.80693H3.82761C3.79816 7.61061 3.77607 7.41429 3.76135 7.21797C3.74663 7.02165 3.73926 6.82533 3.73926 6.62901C3.73926 6.43269 3.74663 6.23637 3.76135 6.04005C3.77607 5.84374 3.79816 5.64742 3.82761 5.4511H1.82515C1.77607 5.64742 1.73926 5.84374 1.71472 6.04005C1.69018 6.23637 1.67791 6.43269 1.67791 6.62901C1.67791 6.82533 1.69018 7.02165 1.71472 7.21797C1.73926 7.41429 1.77607 7.61061 1.82515 7.80693ZM2.32577 4.27318H4.06319C4.15153 3.90999 4.26196 3.55416 4.39448 3.2057C4.52699 2.85723 4.6816 2.51613 4.85828 2.18239C4.31841 2.35907 3.83252 2.62656 3.40061 2.98484C2.96871 3.34312 2.61043 3.77257 2.32577 4.27318ZM4.85828 11.0756C4.6816 10.7419 4.52699 10.4008 4.39448 10.0523C4.26196 9.70386 4.15153 9.34803 4.06319 8.98484H2.32577C2.61043 9.48545 2.96871 9.9149 3.40061 10.2732C3.83252 10.6315 4.31841 10.899 4.85828 11.0756ZM5.27055 4.27318H7.50859C7.3908 3.8511 7.23865 3.44619 7.05215 3.05846C6.86564 2.67073 6.64479 2.30018 6.38957 1.9468C6.13436 2.30018 5.9135 2.67073 5.72699 3.05846C5.54049 3.44619 5.38834 3.8511 5.27055 4.27318ZM8.71595 4.27318H10.4534C10.1687 3.77257 9.81043 3.34312 9.37853 2.98484C8.94663 2.62656 8.46074 2.35907 7.92086 2.18239C8.09755 2.51613 8.25215 2.85723 8.38466 3.2057C8.51718 3.55416 8.62761 3.90999 8.71595 4.27318Z" fill="#8A2BE2"/>
<path d="M11.6607 12.7394L9.92331 11.002V12.3124H8.7454V8.98484H12.073V10.1628H10.7479L12.4853 11.9002L11.6607 12.7394ZM6.38957 12.5186C5.57485 12.5186 4.8092 12.364 4.09264 12.0548C3.37607 11.7456 2.75276 11.3259 2.2227 10.7959C1.69264 10.2658 1.27301 9.64251 0.963804 8.92594C0.654601 8.20938 0.5 7.44374 0.5 6.62901C0.5 5.81429 0.654601 5.04864 0.963804 4.33208C1.27301 3.61551 1.69264 2.9922 2.2227 2.46214C2.75276 1.93208 3.37607 1.51245 4.09264 1.20324C4.8092 0.894042 5.57485 0.739441 6.38957 0.739441C7.20429 0.739441 7.96994 0.894042 8.6865 1.20324C9.40307 1.51245 10.0264 1.93208 10.5564 2.46214C11.0865 2.9922 11.5061 3.61551 11.8153 4.33208C12.1245 5.04864 12.2791 5.81429 12.2791 6.62901C12.2791 6.82533 12.2693 7.02165 12.2497 7.21797C12.2301 7.41429 12.2006 7.61061 12.1614 7.80693H10.954C11.0031 7.61061 11.0399 7.41429 11.0644 7.21797C11.089 7.02165 11.1012 6.82533 11.1012 6.62901C11.1012 6.43269 11.089 6.23637 11.0644 6.04005C11.0399 5.84374 11.0031 5.64742 10.954 5.4511H8.95153C8.98098 5.64742 9.00307 5.84374 9.01779 6.04005C9.03252 6.23637 9.03988 6.43269 9.03988 6.62901C9.03988 6.82533 9.03252 7.02165 9.01779 7.21797C9.00307 7.41429 8.98098 7.61061 8.95153 7.80693H7.77362C7.80307 7.61061 7.82515 7.41429 7.83988 7.21797C7.8546 7.02165 7.86196 6.82533 7.86196 6.62901C7.86196 6.43269 7.8546 6.23637 7.83988 6.04005C7.82515 5.84374 7.80307 5.64742 7.77362 5.4511H5.00552C4.97607 5.64742 4.95399 5.84374 4.93926 6.04005C4.92454 6.23637 4.91718 6.43269 4.91718 6.62901C4.91718 6.82533 4.92454 7.02165 4.93926 7.21797C4.95399 7.41429 4.97607 7.61061 5.00552 7.80693H6.97853V8.98484H5.27055C5.38834 9.40693 5.54049 9.81183 5.72699 10.1996C5.9135 10.5873 6.13436 10.9578 6.38957 11.3112C6.58589 11.3112 6.78221 11.299 6.97853 11.2744C7.17485 11.2499 7.37117 11.2278 7.56748 11.2082V12.4155C7.37117 12.4351 7.17485 12.4572 6.97853 12.4818C6.78221 12.5063 6.58589 12.5186 6.38957 12.5186ZM1.82515 7.80693H3.82761C3.79816 7.61061 3.77607 7.41429 3.76135 7.21797C3.74663 7.02165 3.73926 6.82533 3.73926 6.62901C3.73926 6.43269 3.74663 6.23637 3.76135 6.04005C3.77607 5.84374 3.79816 5.64742 3.82761 5.4511H1.82515C1.77607 5.64742 1.73926 5.84374 1.71472 6.04005C1.69018 6.23637 1.67791 6.43269 1.67791 6.62901C1.67791 6.82533 1.69018 7.02165 1.71472 7.21797C1.73926 7.41429 1.77607 7.61061 1.82515 7.80693ZM2.32577 4.27318H4.06319C4.15153 3.90999 4.26196 3.55416 4.39448 3.2057C4.52699 2.85723 4.6816 2.51613 4.85828 2.18239C4.31841 2.35907 3.83252 2.62656 3.40061 2.98484C2.96871 3.34312 2.61043 3.77257 2.32577 4.27318ZM4.85828 11.0756C4.6816 10.7419 4.52699 10.4008 4.39448 10.0523C4.26196 9.70386 4.15153 9.34803 4.06319 8.98484H2.32577C2.61043 9.48545 2.96871 9.9149 3.40061 10.2732C3.83252 10.6315 4.31841 10.899 4.85828 11.0756ZM5.27055 4.27318H7.50859C7.3908 3.8511 7.23865 3.44619 7.05215 3.05846C6.86564 2.67073 6.64479 2.30018 6.38957 1.9468C6.13436 2.30018 5.9135 2.67073 5.72699 3.05846C5.54049 3.44619 5.38834 3.8511 5.27055 4.27318ZM8.71595 4.27318H10.4534C10.1687 3.77257 9.81043 3.34312 9.37853 2.98484C8.94663 2.62656 8.46074 2.35907 7.92086 2.18239C8.09755 2.51613 8.25215 2.85723 8.38466 3.2057C8.51718 3.55416 8.62761 3.90999 8.71595 4.27318Z" fill="#8A2BE2" fill-opacity="0.1"/>
</svg>
